<svg xmlns="http://www.w3.org/2000/svg" viewBox="22 10 92 92" fill="none" shape-rendering="auto" aria-hidden="true"><defs><g id="outfit-dress-e5414332"><path d="M36.5 106.5h45v10h-45Zm0 0h45l7.5-6H44Zm45 0 7.5-6v10l-7.5 6Z" fill="#6b4f3a"/><path d="M36.5 106.5h45l7.5-6H44Z" fill="#ffffff" fill-opacity=".38"/><path d="m81.5 106.5 7.5-6v10l-7.5 6Z" fill="#000000" fill-opacity=".24"/><path fill="#000000" fill-opacity=".16" d="M36.5 116.5h45v1.5h-45z"/><path d="M39.5 83.6h40v22.5h-40Zm0 0h40l7-5.6h-40Zm40 0 7-5.6v22.5l-7 5.6Z" fill="#6b4f3a"/><path d="M39.5 83.6h40l7-5.6h-40Z" fill="#ffffff" fill-opacity=".38"/><path d="m79.5 83.6 7-5.6v22.5l-7 5.6Z" fill="#000000" fill-opacity=".24"/><path d="M32.5 85.7H40v22.5h-7.5Zm0 0H40l6-4.8h-7.5Z" fill="#b07347"/><path d="M32.5 85.7H40l6-4.8h-7.5Z" fill="#ffffff" fill-opacity=".38"/><path d="M80 85.7h7.5v22.5H80Zm0 0h7.5l6-4.8H86Zm7.5 0 6-4.8v22.5l-6 4.8Z" fill="#b07347"/><path d="M80 85.7h7.5l6-4.8H86Z" fill="#ffffff" fill-opacity=".38"/><path d="m87.5 85.7 6-4.8v22.5l-6 4.8Z" fill="#000000" fill-opacity=".24"/></g><g id="mouth-smirk-e5414332"><path fill="#26190f" d="M22.5 2.5H35V5H22.5zM35 0h2.5v2.5H35z"/></g><g id="eyes-side-e5414332"><path d="M10 0h7.5v2.5H20v10h-2.5V15H10v-2.5H7.5v-10H10Z" fill="#ffffff"/><path fill="#26190f" d="M12.5 2.5H20v10h-7.5z"/><path fill="#ffffff" fill-opacity=".95" d="M15 5h2.5v2.5H15z"/><path d="M42.5 0H50v2.5h2.5v10H50V15h-7.5v-2.5H40v-10h2.5Z" fill="#ffffff"/><path fill="#26190f" d="M45 2.5h7.5v10H45z"/><path fill="#ffffff" fill-opacity=".95" d="M47.5 5H50v2.5h-2.5z"/></g><g id="animation-none-e5414332"></g><g id="nose-block-e5414332"><path d="M54.5 63.1h5v7.5h-5Zm0 0h5l2-1.6h-5Zm5 0 2-1.6V69l-2 1.6Z" fill="#b07347"/><path d="M54.5 63.1h5v7.5h-5Zm0 0h5l2-1.6h-5Zm5 0 2-1.6V69l-2 1.6Z" fill="#e8590c" fill-opacity=".14"/><path d="M54.5 63.1h5l2-1.6h-5Z" fill="#ffffff" fill-opacity=".38"/><path d="m59.5 63.1 2-1.6V69l-2 1.6Z" fill="#000000" fill-opacity=".24"/><path fill="#000000" fill-opacity=".16" d="M54.5 70.6h5v1h-5z"/></g><g id="top-bunnyEars-e5414332"><path d="M26.5 41.5H34v15h-7.5Z" fill="#f2f2f2"/><path d="M24.5 43.1H32v15h-7.5Zm7.5 0 2-1.6v15l-2 1.6Z" fill="#f2f2f2"/><path d="m32 43.1 2-1.6v15l-2 1.6Z" fill="#000000" fill-opacity=".24"/><path d="M82 43.1h7.5v15H82Zm7.5 0 12.5-10v15l-12.5 10Z" fill="#f2f2f2"/><path d="m89.5 43.1 12.5-10v15l-12.5 10Z" fill="#000000" fill-opacity=".24"/><path d="M24.5 23.1h65v20h-65Zm0 0h65l12.5-10H37Zm65 0 12.5-10v20l-12.5 10Z" fill="#f2f2f2"/><path d="M24.5 23.1h65l12.5-10H37Z" fill="#ffffff" fill-opacity=".38"/><path d="m89.5 23.1 12.5-10v20l-12.5 10Z" fill="#000000" fill-opacity=".24"/><path fill="#000000" fill-opacity=".16" d="M24.5 43.1h65v2h-65z"/><path d="M37 10.6h7.5v12.5H37Zm0 0h7.5L57 .6h-7.5Zm7.5 0L57 .6v12.5l-12.5 10Z" fill="#f2f2f2"/><path d="M37 10.6h7.5L57 .6h-7.5Z" fill="#ffffff" fill-opacity=".38"/><path d="M44.5 10.6 57 .6v12.5l-12.5 10Z" fill="#000000" fill-opacity=".24"/><path d="M39.5 13.1H42v7.5h-2.5Z" fill="#ffb3c1"/><path d="M69.5 10.6H77v12.5h-7.5Zm0 0H77L89.5.6H82Zm7.5 0L89.5.6v12.5L77 23.1Z" fill="#f2f2f2"/><path d="M69.5 10.6H77L89.5.6H82Z" fill="#ffffff" fill-opacity=".38"/><path d="M77 10.6 89.5.6v12.5L77 23.1Z" fill="#000000" fill-opacity=".24"/><path d="M72 13.1h2.5v7.5H72Z" fill="#ffb3c1"/><path fill="#26190f" d="M42 28.1h2.5v2.5H42zm27.5 0H72v2.5h-2.5zm-15 2.5H57v2.5h-2.5z"/><path fill="#ffb3c1" fill-opacity=".85" d="M34.5 33.1H37v2.5h-2.5zm42.5 0h2.5v2.5H77z"/></g><clipPath id="clip-e5414332"><rect width="128" height="128" rx="0" ry="0"/></clipPath></defs><g clip-path="url(#clip-e5414332)"><path d="M33 124.8h50l10.5-8.4h-50Z" fill="#000000" fill-opacity=".08"/><path d="M41 121.9h15v2.5H41Zm0 0h15l8.5-6.8h-15Zm15 0 8.5-6.8v2.5l-8.5 6.8Z" fill="#343a40"/><path d="M41 121.9h15l8.5-6.8h-15Z" fill="#ffffff" fill-opacity=".38"/><path d="m56 121.9 8.5-6.8v2.5l-8.5 6.8Z" fill="#000000" fill-opacity=".24"/><path d="M41.5 119h15v2.5h-15Zm0 0h15l8-6.4h-15Zm15 0 8-6.4v2.5l-8 6.4Z" fill="#343a40"/><path d="M41.5 119h15l8-6.4h-15Z" fill="#ffffff" fill-opacity=".38"/><path d="m56.5 119 8-6.4v2.5l-8 6.4Z" fill="#000000" fill-opacity=".24"/><path d="M61 121.9h15v2.5H61Zm0 0h15l8.5-6.8h-15Zm15 0 8.5-6.8v2.5l-8.5 6.8Z" fill="#343a40"/><path d="M61 121.9h15l8.5-6.8h-15Z" fill="#ffffff" fill-opacity=".38"/><path d="m76 121.9 8.5-6.8v2.5l-8.5 6.8Z" fill="#000000" fill-opacity=".24"/><path d="M61.5 119h15v2.5h-15Zm0 0h15l8-6.4h-15Zm15 0 8-6.4v2.5l-8 6.4Z" fill="#343a40"/><path d="M61.5 119h15l8-6.4h-15Z" fill="#ffffff" fill-opacity=".38"/><path d="m76.5 119 8-6.4v2.5l-8 6.4Z" fill="#000000" fill-opacity=".24"/><path d="M42 103.6h15v15H42Zm0 0h15l7-5.6H49Zm15 0 7-5.6v15l-7 5.6Z" fill="#495057"/><path d="M42 103.6h15l7-5.6H49Z" fill="#ffffff" fill-opacity=".38"/><path d="m57 103.6 7-5.6v15l-7 5.6Z" fill="#000000" fill-opacity=".24"/><path d="M62 103.6h15v15H62Zm0 0h15l7-5.6H69Zm15 0 7-5.6v15l-7 5.6Z" fill="#495057"/><path d="M62 103.6h15l7-5.6H69Z" fill="#ffffff" fill-opacity=".38"/><path d="m77 103.6 7-5.6v15l-7 5.6Z" fill="#000000" fill-opacity=".24"/><g class="va-upper"><path d="M32.5 100.7H40v7.5h-7.5Zm0 0H40l6-4.8h-7.5Z" fill="#b07347"/><path d="M32.5 100.7H40l6-4.8h-7.5Z" fill="#ffffff" fill-opacity=".38"/><path d="M32.5 85.7H40v15h-7.5Zm0 0H40l6-4.8h-7.5Z" fill="#7950f2"/><path d="M32.5 85.7H40l6-4.8h-7.5Z" fill="#ffffff" fill-opacity=".38"/><path d="M39.5 83.6h40v25h-40Zm0 0h40l7-5.6h-40Zm40 0 7-5.6v25l-7 5.6Z" fill="#7950f2"/><path d="M39.5 83.6h40l7-5.6h-40Z" fill="#ffffff" fill-opacity=".38"/><path d="m79.5 83.6 7-5.6v25l-7 5.6Z" fill="#000000" fill-opacity=".24"/><path fill="#000000" fill-opacity=".16" d="M39.5 108.6h40v1.5h-40z"/><path d="M80 100.7h7.5v7.5H80Zm0 0h7.5l6-4.8H86Zm7.5 0 6-4.8v7.5l-6 4.8Z" fill="#b07347"/><path d="M80 100.7h7.5l6-4.8H86Z" fill="#ffffff" fill-opacity=".38"/><path d="m87.5 100.7 6-4.8v7.5l-6 4.8Z" fill="#000000" fill-opacity=".24"/><path d="M80 85.7h7.5v15H80Zm0 0h7.5l6-4.8H86Zm7.5 0 6-4.8v15l-6 4.8Z" fill="#7950f2"/><path d="M80 85.7h7.5l6-4.8H86Z" fill="#ffffff" fill-opacity=".38"/><path d="m87.5 85.7 6-4.8v15l-6 4.8Z" fill="#000000" fill-opacity=".24"/><use href="#outfit-dress-e5414332"/><path fill="#000000" fill-opacity=".08" d="M32.5 85.7h7v22.5h-7zm47.5 0h7.5v22.5H80z"/><path d="M28 55.3h2.5v10H28Zm0 0h2.5l4-3.2H32Z" fill="#b07347"/><path d="M28 55.3h2.5l4-3.2H32Z" fill="#ffffff" fill-opacity=".38"/><path d="M29 31.5h60v55H29Zm0 0h60l10-8H39Zm60 0 10-8v55l-10 8Z" fill="#b07347"/><path d="M29 31.5h60l10-8H39Z" fill="#ffffff" fill-opacity=".38"/><path d="m89 31.5 10-8v55l-10 8Z" fill="#000000" fill-opacity=".24"/><path d="M90.5 55.3H93v10h-2.5Zm0 0H93l4-3.2h-2.5Zm2.5 0 4-3.2v10l-4 3.2Z" fill="#b07347"/><path d="M90.5 55.3H93l4-3.2h-2.5Z" fill="#ffffff" fill-opacity=".38"/><path d="m93 55.3 4-3.2v10l-4 3.2Z" fill="#000000" fill-opacity=".24"/><path fill="#000000" fill-opacity=".2" d="M32.5 86.5h55V89h-55z"/><use transform="translate(29 74)" href="#mouth-smirk-e5414332"/><use transform="translate(29 49)" href="#eyes-side-e5414332"/><use href="#animation-none-e5414332"/><use href="#nose-block-e5414332"/><use href="#top-bunnyEars-e5414332"/></g></g></svg>
